<mxfile host="app.diagrams.net" modified="2023-10-20T15:50:33.367Z" agent="Mozilla/5.0 (Windows NT 10.0; Win64; x64) AppleWebKit/537.36 (KHTML, like Gecko) Chrome/118.0.0.0 Safari/537.36" etag="DJtAlo9nfze0GM1lZvJu" version="22.0.6" type="github">
  <diagram name="PÃ¡gina-1" id="OgZP_NbM3yokd9PwE1lo">
    <mxGraphModel dx="1486" dy="1885" grid="1" gridSize="10" guides="1" tooltips="1" connect="1" arrows="1" fold="1" page="1" pageScale="1" pageWidth="827" pageHeight="1169" math="0" shadow="0">
      <root>
        <mxCell id="0" />
        <mxCell id="1" parent="0" />
        <mxCell id="s13MQNfYXoc7W4M39cxg-8" value="Tweet" style="swimlane;fontStyle=0;childLayout=stackLayout;horizontal=1;startSize=30;horizontalStack=0;resizeParent=1;resizeParentMax=0;resizeLast=0;collapsible=1;marginBottom=0;whiteSpace=wrap;html=1;" parent="1" vertex="1">
          <mxGeometry x="528" y="-920" width="140" height="210" as="geometry" />
        </mxCell>
        <mxCell id="s13MQNfYXoc7W4M39cxg-9" value="" style="shape=table;startSize=0;container=1;collapsible=1;childLayout=tableLayout;fixedRows=1;rowLines=0;fontStyle=0;align=center;resizeLast=1;strokeColor=none;fillColor=none;collapsible=0;" parent="s13MQNfYXoc7W4M39cxg-8" vertex="1">
          <mxGeometry y="30" width="140" height="30" as="geometry" />
        </mxCell>
        <mxCell id="s13MQNfYXoc7W4M39cxg-10" value="" style="shape=tableRow;horizontal=0;startSize=0;swimlaneHead=0;swimlaneBody=0;fillColor=none;collapsible=0;dropTarget=0;points=[[0,0.5],[1,0.5]];portConstraint=eastwest;top=0;left=0;right=0;bottom=1;" parent="s13MQNfYXoc7W4M39cxg-9" vertex="1">
          <mxGeometry width="140" height="30" as="geometry" />
        </mxCell>
        <mxCell id="s13MQNfYXoc7W4M39cxg-11" value="PK" style="shape=partialRectangle;connectable=0;fillColor=none;top=0;left=0;bottom=0;right=0;fontStyle=1;overflow=hidden;whiteSpace=wrap;html=1;" parent="s13MQNfYXoc7W4M39cxg-10" vertex="1">
          <mxGeometry width="30" height="30" as="geometry">
            <mxRectangle width="30" height="30" as="alternateBounds" />
          </mxGeometry>
        </mxCell>
        <mxCell id="s13MQNfYXoc7W4M39cxg-12" value="id_tweet" style="shape=partialRectangle;connectable=0;fillColor=none;top=0;left=0;bottom=0;right=0;align=left;spacingLeft=6;fontStyle=5;overflow=hidden;whiteSpace=wrap;html=1;" parent="s13MQNfYXoc7W4M39cxg-10" vertex="1">
          <mxGeometry x="30" width="110" height="30" as="geometry">
            <mxRectangle width="110" height="30" as="alternateBounds" />
          </mxGeometry>
        </mxCell>
        <mxCell id="s13MQNfYXoc7W4M39cxg-14" value="hashtag" style="text;strokeColor=none;fillColor=none;align=left;verticalAlign=middle;spacingLeft=4;spacingRight=4;overflow=hidden;points=[[0,0.5],[1,0.5]];portConstraint=eastwest;rotatable=0;whiteSpace=wrap;html=1;" parent="s13MQNfYXoc7W4M39cxg-8" vertex="1">
          <mxGeometry y="60" width="140" height="30" as="geometry" />
        </mxCell>
        <mxCell id="s13MQNfYXoc7W4M39cxg-15" value="mensaje" style="text;strokeColor=none;fillColor=none;align=left;verticalAlign=middle;spacingLeft=4;spacingRight=4;overflow=hidden;points=[[0,0.5],[1,0.5]];portConstraint=eastwest;rotatable=0;whiteSpace=wrap;html=1;" parent="s13MQNfYXoc7W4M39cxg-8" vertex="1">
          <mxGeometry y="90" width="140" height="30" as="geometry" />
        </mxCell>
        <mxCell id="s13MQNfYXoc7W4M39cxg-16" value="caracteres" style="text;strokeColor=none;fillColor=none;align=left;verticalAlign=middle;spacingLeft=4;spacingRight=4;overflow=hidden;points=[[0,0.5],[1,0.5]];portConstraint=eastwest;rotatable=0;whiteSpace=wrap;html=1;" parent="s13MQNfYXoc7W4M39cxg-8" vertex="1">
          <mxGeometry y="120" width="140" height="30" as="geometry" />
        </mxCell>
        <mxCell id="s13MQNfYXoc7W4M39cxg-56" value="localizacion" style="text;strokeColor=none;fillColor=none;align=left;verticalAlign=middle;spacingLeft=4;spacingRight=4;overflow=hidden;points=[[0,0.5],[1,0.5]];portConstraint=eastwest;rotatable=0;whiteSpace=wrap;html=1;" parent="s13MQNfYXoc7W4M39cxg-8" vertex="1">
          <mxGeometry y="150" width="140" height="30" as="geometry" />
        </mxCell>
        <mxCell id="s13MQNfYXoc7W4M39cxg-17" value="foto" style="text;strokeColor=none;fillColor=none;align=left;verticalAlign=middle;spacingLeft=4;spacingRight=4;overflow=hidden;points=[[0,0.5],[1,0.5]];portConstraint=eastwest;rotatable=0;whiteSpace=wrap;html=1;" parent="s13MQNfYXoc7W4M39cxg-8" vertex="1">
          <mxGeometry y="180" width="140" height="30" as="geometry" />
        </mxCell>
        <mxCell id="s13MQNfYXoc7W4M39cxg-19" value="Usuario" style="swimlane;fontStyle=0;childLayout=stackLayout;horizontal=1;startSize=30;horizontalStack=0;resizeParent=1;resizeParentMax=0;resizeLast=0;collapsible=1;marginBottom=0;whiteSpace=wrap;html=1;" parent="1" vertex="1">
          <mxGeometry x="138" y="-825" width="140" height="210" as="geometry" />
        </mxCell>
        <mxCell id="s13MQNfYXoc7W4M39cxg-20" value="" style="shape=table;startSize=0;container=1;collapsible=1;childLayout=tableLayout;fixedRows=1;rowLines=0;fontStyle=0;align=center;resizeLast=1;strokeColor=none;fillColor=none;collapsible=0;" parent="s13MQNfYXoc7W4M39cxg-19" vertex="1">
          <mxGeometry y="30" width="140" height="30" as="geometry" />
        </mxCell>
        <mxCell id="s13MQNfYXoc7W4M39cxg-21" value="" style="shape=tableRow;horizontal=0;startSize=0;swimlaneHead=0;swimlaneBody=0;fillColor=none;collapsible=0;dropTarget=0;points=[[0,0.5],[1,0.5]];portConstraint=eastwest;top=0;left=0;right=0;bottom=1;" parent="s13MQNfYXoc7W4M39cxg-20" vertex="1">
          <mxGeometry width="140" height="30" as="geometry" />
        </mxCell>
        <mxCell id="s13MQNfYXoc7W4M39cxg-22" value="PK" style="shape=partialRectangle;connectable=0;fillColor=none;top=0;left=0;bottom=0;right=0;fontStyle=1;overflow=hidden;whiteSpace=wrap;html=1;" parent="s13MQNfYXoc7W4M39cxg-21" vertex="1">
          <mxGeometry width="30" height="30" as="geometry">
            <mxRectangle width="30" height="30" as="alternateBounds" />
          </mxGeometry>
        </mxCell>
        <mxCell id="s13MQNfYXoc7W4M39cxg-23" value="id_usuario" style="shape=partialRectangle;connectable=0;fillColor=none;top=0;left=0;bottom=0;right=0;align=left;spacingLeft=6;fontStyle=5;overflow=hidden;whiteSpace=wrap;html=1;" parent="s13MQNfYXoc7W4M39cxg-21" vertex="1">
          <mxGeometry x="30" width="110" height="30" as="geometry">
            <mxRectangle width="110" height="30" as="alternateBounds" />
          </mxGeometry>
        </mxCell>
        <mxCell id="s13MQNfYXoc7W4M39cxg-24" value="nombre" style="text;strokeColor=none;fillColor=none;align=left;verticalAlign=middle;spacingLeft=4;spacingRight=4;overflow=hidden;points=[[0,0.5],[1,0.5]];portConstraint=eastwest;rotatable=0;whiteSpace=wrap;html=1;" parent="s13MQNfYXoc7W4M39cxg-19" vertex="1">
          <mxGeometry y="60" width="140" height="30" as="geometry" />
        </mxCell>
        <mxCell id="s13MQNfYXoc7W4M39cxg-25" value="apellidos" style="text;strokeColor=none;fillColor=none;align=left;verticalAlign=middle;spacingLeft=4;spacingRight=4;overflow=hidden;points=[[0,0.5],[1,0.5]];portConstraint=eastwest;rotatable=0;whiteSpace=wrap;html=1;" parent="s13MQNfYXoc7W4M39cxg-19" vertex="1">
          <mxGeometry y="90" width="140" height="30" as="geometry" />
        </mxCell>
        <mxCell id="mRNTsra2dq2ffMZ_S3t9-1" value="email" style="text;strokeColor=none;fillColor=none;align=left;verticalAlign=middle;spacingLeft=4;spacingRight=4;overflow=hidden;points=[[0,0.5],[1,0.5]];portConstraint=eastwest;rotatable=0;whiteSpace=wrap;html=1;" parent="s13MQNfYXoc7W4M39cxg-19" vertex="1">
          <mxGeometry y="120" width="140" height="30" as="geometry" />
        </mxCell>
        <mxCell id="559qUEmDnsinvbpg32ZU-1" value="urlFoto" style="text;strokeColor=none;fillColor=none;align=left;verticalAlign=middle;spacingLeft=4;spacingRight=4;overflow=hidden;points=[[0,0.5],[1,0.5]];portConstraint=eastwest;rotatable=0;whiteSpace=wrap;html=1;" parent="s13MQNfYXoc7W4M39cxg-19" vertex="1">
          <mxGeometry y="150" width="140" height="30" as="geometry" />
        </mxCell>
        <mxCell id="s13MQNfYXoc7W4M39cxg-26" value="isCelebridad" style="text;strokeColor=none;fillColor=none;align=left;verticalAlign=middle;spacingLeft=4;spacingRight=4;overflow=hidden;points=[[0,0.5],[1,0.5]];portConstraint=eastwest;rotatable=0;whiteSpace=wrap;html=1;" parent="s13MQNfYXoc7W4M39cxg-19" vertex="1">
          <mxGeometry y="180" width="140" height="30" as="geometry" />
        </mxCell>
        <mxCell id="s13MQNfYXoc7W4M39cxg-31" value="TrendingTopic" style="swimlane;fontStyle=0;childLayout=stackLayout;horizontal=1;startSize=30;horizontalStack=0;resizeParent=1;resizeParentMax=0;resizeLast=0;collapsible=1;marginBottom=0;whiteSpace=wrap;html=1;" parent="1" vertex="1">
          <mxGeometry x="528" y="-560" width="140" height="90" as="geometry" />
        </mxCell>
        <mxCell id="s13MQNfYXoc7W4M39cxg-32" value="" style="shape=table;startSize=0;container=1;collapsible=1;childLayout=tableLayout;fixedRows=1;rowLines=0;fontStyle=0;align=center;resizeLast=1;strokeColor=none;fillColor=none;collapsible=0;" parent="s13MQNfYXoc7W4M39cxg-31" vertex="1">
          <mxGeometry y="30" width="140" height="30" as="geometry" />
        </mxCell>
        <mxCell id="s13MQNfYXoc7W4M39cxg-33" value="" style="shape=tableRow;horizontal=0;startSize=0;swimlaneHead=0;swimlaneBody=0;fillColor=none;collapsible=0;dropTarget=0;points=[[0,0.5],[1,0.5]];portConstraint=eastwest;top=0;left=0;right=0;bottom=1;" parent="s13MQNfYXoc7W4M39cxg-32" vertex="1">
          <mxGeometry width="140" height="30" as="geometry" />
        </mxCell>
        <mxCell id="s13MQNfYXoc7W4M39cxg-34" value="PK" style="shape=partialRectangle;connectable=0;fillColor=none;top=0;left=0;bottom=0;right=0;fontStyle=1;overflow=hidden;whiteSpace=wrap;html=1;" parent="s13MQNfYXoc7W4M39cxg-33" vertex="1">
          <mxGeometry width="30" height="30" as="geometry">
            <mxRectangle width="30" height="30" as="alternateBounds" />
          </mxGeometry>
        </mxCell>
        <mxCell id="s13MQNfYXoc7W4M39cxg-35" value="hashtag" style="shape=partialRectangle;connectable=0;fillColor=none;top=0;left=0;bottom=0;right=0;align=left;spacingLeft=6;fontStyle=5;overflow=hidden;whiteSpace=wrap;html=1;" parent="s13MQNfYXoc7W4M39cxg-33" vertex="1">
          <mxGeometry x="30" width="110" height="30" as="geometry">
            <mxRectangle width="110" height="30" as="alternateBounds" />
          </mxGeometry>
        </mxCell>
        <mxCell id="s13MQNfYXoc7W4M39cxg-40" value="caracteres" style="text;strokeColor=none;fillColor=none;align=left;verticalAlign=middle;spacingLeft=4;spacingRight=4;overflow=hidden;points=[[0,0.5],[1,0.5]];portConstraint=eastwest;rotatable=0;whiteSpace=wrap;html=1;" parent="s13MQNfYXoc7W4M39cxg-31" vertex="1">
          <mxGeometry y="60" width="140" height="30" as="geometry" />
        </mxCell>
        <mxCell id="s13MQNfYXoc7W4M39cxg-43" value="Publica" style="shape=rhombus;perimeter=rhombusPerimeter;whiteSpace=wrap;html=1;align=center;" parent="1" vertex="1">
          <mxGeometry x="328" y="-790" width="120" height="60" as="geometry" />
        </mxCell>
        <mxCell id="s13MQNfYXoc7W4M39cxg-44" value="Es" style="shape=rhombus;perimeter=rhombusPerimeter;whiteSpace=wrap;html=1;align=center;" parent="1" vertex="1">
          <mxGeometry x="538" y="-680" width="120" height="60" as="geometry" />
        </mxCell>
        <mxCell id="s13MQNfYXoc7W4M39cxg-45" value="Sigue" style="shape=rhombus;perimeter=rhombusPerimeter;whiteSpace=wrap;html=1;align=center;" parent="1" vertex="1">
          <mxGeometry x="148" y="-550" width="120" height="60" as="geometry" />
        </mxCell>
        <mxCell id="s13MQNfYXoc7W4M39cxg-46" value="" style="endArrow=none;html=1;rounded=0;entryX=0;entryY=0.5;entryDx=0;entryDy=0;exitX=0;exitY=0.25;exitDx=0;exitDy=0;" parent="1" source="s13MQNfYXoc7W4M39cxg-61" target="s13MQNfYXoc7W4M39cxg-45" edge="1">
          <mxGeometry width="50" height="50" relative="1" as="geometry">
            <mxPoint x="268" y="-660" as="sourcePoint" />
            <mxPoint x="318" y="-710" as="targetPoint" />
          </mxGeometry>
        </mxCell>
        <mxCell id="s13MQNfYXoc7W4M39cxg-48" value="" style="endArrow=none;html=1;rounded=0;entryX=1;entryY=0.5;entryDx=0;entryDy=0;exitX=1;exitY=0.25;exitDx=0;exitDy=0;" parent="1" source="s13MQNfYXoc7W4M39cxg-61" target="s13MQNfYXoc7W4M39cxg-45" edge="1">
          <mxGeometry width="50" height="50" relative="1" as="geometry">
            <mxPoint x="197" y="-767" as="sourcePoint" />
            <mxPoint x="138" y="-670" as="targetPoint" />
          </mxGeometry>
        </mxCell>
        <mxCell id="s13MQNfYXoc7W4M39cxg-49" value="" style="endArrow=none;html=1;rounded=0;entryX=0;entryY=0.5;entryDx=0;entryDy=0;exitX=1;exitY=0.5;exitDx=0;exitDy=0;" parent="1" source="s13MQNfYXoc7W4M39cxg-24" target="s13MQNfYXoc7W4M39cxg-43" edge="1">
          <mxGeometry width="50" height="50" relative="1" as="geometry">
            <mxPoint x="217" y="-757" as="sourcePoint" />
            <mxPoint x="158" y="-640" as="targetPoint" />
          </mxGeometry>
        </mxCell>
        <mxCell id="s13MQNfYXoc7W4M39cxg-50" value="" style="endArrow=none;html=1;rounded=0;entryX=0;entryY=0.5;entryDx=0;entryDy=0;exitX=1;exitY=0.5;exitDx=0;exitDy=0;" parent="1" source="s13MQNfYXoc7W4M39cxg-43" edge="1">
          <mxGeometry width="50" height="50" relative="1" as="geometry">
            <mxPoint x="398" y="-710" as="sourcePoint" />
            <mxPoint x="528" y="-845" as="targetPoint" />
          </mxGeometry>
        </mxCell>
        <mxCell id="s13MQNfYXoc7W4M39cxg-54" value="" style="endArrow=none;html=1;rounded=0;entryX=0.5;entryY=0;entryDx=0;entryDy=0;exitX=0.502;exitY=1.02;exitDx=0;exitDy=0;exitPerimeter=0;" parent="1" source="s13MQNfYXoc7W4M39cxg-17" target="s13MQNfYXoc7W4M39cxg-44" edge="1">
          <mxGeometry width="50" height="50" relative="1" as="geometry">
            <mxPoint x="578" y="-720" as="sourcePoint" />
            <mxPoint x="278" y="-640" as="targetPoint" />
          </mxGeometry>
        </mxCell>
        <mxCell id="s13MQNfYXoc7W4M39cxg-55" value="" style="endArrow=none;html=1;rounded=0;entryX=0.5;entryY=1;entryDx=0;entryDy=0;exitX=0.5;exitY=0;exitDx=0;exitDy=0;" parent="1" source="s13MQNfYXoc7W4M39cxg-31" target="s13MQNfYXoc7W4M39cxg-44" edge="1">
          <mxGeometry width="50" height="50" relative="1" as="geometry">
            <mxPoint x="230" y="-747" as="sourcePoint" />
            <mxPoint x="288" y="-630" as="targetPoint" />
          </mxGeometry>
        </mxCell>
        <mxCell id="s13MQNfYXoc7W4M39cxg-57" value="0,n" style="text;html=1;strokeColor=none;fillColor=none;align=center;verticalAlign=middle;whiteSpace=wrap;rounded=0;" parent="1" vertex="1">
          <mxGeometry x="258" y="-620" width="60" height="30" as="geometry" />
        </mxCell>
        <mxCell id="s13MQNfYXoc7W4M39cxg-58" value="0,n" style="text;html=1;strokeColor=none;fillColor=none;align=center;verticalAlign=middle;whiteSpace=wrap;rounded=0;" parent="1" vertex="1">
          <mxGeometry x="118" y="-620" width="60" height="30" as="geometry" />
        </mxCell>
        <mxCell id="s13MQNfYXoc7W4M39cxg-59" value="1,1" style="text;html=1;strokeColor=none;fillColor=none;align=center;verticalAlign=middle;whiteSpace=wrap;rounded=0;" parent="1" vertex="1">
          <mxGeometry x="278" y="-760" width="60" height="30" as="geometry" />
        </mxCell>
        <mxCell id="s13MQNfYXoc7W4M39cxg-60" value="0,n" style="text;html=1;strokeColor=none;fillColor=none;align=center;verticalAlign=middle;whiteSpace=wrap;rounded=0;" parent="1" vertex="1">
          <mxGeometry x="461.5" y="-790" width="60" height="30" as="geometry" />
        </mxCell>
        <mxCell id="s13MQNfYXoc7W4M39cxg-61" value="N:M" style="text;html=1;strokeColor=none;fillColor=none;align=center;verticalAlign=middle;whiteSpace=wrap;rounded=0;" parent="1" vertex="1">
          <mxGeometry x="178" y="-620" width="60" height="30" as="geometry" />
        </mxCell>
        <mxCell id="s13MQNfYXoc7W4M39cxg-62" value="N:1" style="text;html=1;strokeColor=none;fillColor=none;align=center;verticalAlign=middle;whiteSpace=wrap;rounded=0;" parent="1" vertex="1">
          <mxGeometry x="358" y="-825" width="60" height="30" as="geometry" />
        </mxCell>
        <mxCell id="s13MQNfYXoc7W4M39cxg-63" value="1,n" style="text;html=1;strokeColor=none;fillColor=none;align=center;verticalAlign=middle;whiteSpace=wrap;rounded=0;" parent="1" vertex="1">
          <mxGeometry x="588" y="-710" width="60" height="30" as="geometry" />
        </mxCell>
        <mxCell id="s13MQNfYXoc7W4M39cxg-64" value="0,1" style="text;html=1;strokeColor=none;fillColor=none;align=center;verticalAlign=middle;whiteSpace=wrap;rounded=0;" parent="1" vertex="1">
          <mxGeometry x="588" y="-590" width="60" height="30" as="geometry" />
        </mxCell>
        <mxCell id="s13MQNfYXoc7W4M39cxg-65" value="N:1" style="text;html=1;strokeColor=none;fillColor=none;align=center;verticalAlign=middle;whiteSpace=wrap;rounded=0;" parent="1" vertex="1">
          <mxGeometry x="648" y="-665" width="60" height="30" as="geometry" />
        </mxCell>
        <mxCell id="SmEJtxQbj-xSI1ypc0sR-1" value="&lt;font style=&quot;font-size: 14px;&quot;&gt;Usuario (&lt;b&gt;&lt;u&gt;id_usuario&lt;/u&gt;&lt;/b&gt;, nombre, apellidos, email, urlFoto, isCelebridad)&lt;br&gt;&lt;br&gt;TrendingTopic (&lt;b style=&quot;border-color: var(--border-color);&quot;&gt;id_trending_topic&lt;/b&gt;, usuario, caracteres)&lt;br&gt;&lt;br&gt;Tweet (&lt;span style=&quot;font-weight: bold;&quot;&gt;id_tweet&lt;/span&gt;, &lt;u&gt;fk_id_usuari&lt;/u&gt;&lt;b style=&quot;text-decoration-line: underline;&quot;&gt;,&lt;/b&gt;&amp;nbsp;&lt;u&gt;fk_id_trending_topic&lt;/u&gt;, mensaje, caracteres, localizacion, foto)&lt;br&gt;&lt;br&gt;Sigue(&lt;b&gt;&lt;u&gt;pk_id_usuario&lt;/u&gt;&lt;/b&gt;, &lt;u&gt;&lt;b&gt;pk&lt;/b&gt;&lt;/u&gt;_&lt;u style=&quot;font-weight: bold;&quot;&gt;id_usuario2&lt;/u&gt;&lt;u style=&quot;font-weight: bold;&quot;&gt;)&lt;/u&gt;&lt;br&gt;&lt;br&gt;Retweet (&lt;b&gt;&lt;u&gt;fk_id_tweet, fk_id_usuario&lt;/u&gt;&lt;/b&gt;)&lt;br&gt;&lt;br&gt;Mensaje (&lt;b&gt;id_mensaje&lt;/b&gt;, mensaje, fecha)&lt;br&gt;&lt;br&gt;Envia (&lt;b&gt;&lt;u&gt;fk_id_usuario, fk_id_mensaje&lt;/u&gt;&lt;/b&gt;)&lt;br&gt;&lt;br&gt;Recibe(f&lt;b&gt;&lt;u&gt;k_id_usuario, fk_id_mensaje&lt;/u&gt;&lt;/b&gt;)&lt;/font&gt;" style="text;html=1;strokeColor=none;fillColor=none;align=left;verticalAlign=middle;whiteSpace=wrap;rounded=0;" parent="1" vertex="1">
          <mxGeometry x="90" y="-400" width="670" height="260" as="geometry" />
        </mxCell>
        <mxCell id="mRNTsra2dq2ffMZ_S3t9-2" value="Retweet" style="shape=rhombus;perimeter=rhombusPerimeter;whiteSpace=wrap;html=1;align=center;" parent="1" vertex="1">
          <mxGeometry x="338" y="-680" width="120" height="60" as="geometry" />
        </mxCell>
        <mxCell id="mRNTsra2dq2ffMZ_S3t9-3" value="" style="endArrow=none;html=1;rounded=0;entryX=1;entryY=0.5;entryDx=0;entryDy=0;exitX=0.007;exitY=0.9;exitDx=0;exitDy=0;exitPerimeter=0;" parent="1" source="s13MQNfYXoc7W4M39cxg-17" target="mRNTsra2dq2ffMZ_S3t9-2" edge="1">
          <mxGeometry width="50" height="50" relative="1" as="geometry">
            <mxPoint x="668" y="-767" as="sourcePoint" />
            <mxPoint x="726" y="-680" as="targetPoint" />
          </mxGeometry>
        </mxCell>
        <mxCell id="mRNTsra2dq2ffMZ_S3t9-4" value="" style="endArrow=none;html=1;rounded=0;entryX=0;entryY=0.5;entryDx=0;entryDy=0;exitX=0.983;exitY=-0.178;exitDx=0;exitDy=0;exitPerimeter=0;" parent="1" source="s13MQNfYXoc7W4M39cxg-26" target="mRNTsra2dq2ffMZ_S3t9-2" edge="1">
          <mxGeometry width="50" height="50" relative="1" as="geometry">
            <mxPoint x="668" y="-920" as="sourcePoint" />
            <mxPoint x="726" y="-833" as="targetPoint" />
          </mxGeometry>
        </mxCell>
        <mxCell id="mRNTsra2dq2ffMZ_S3t9-5" value="N:M" style="text;html=1;strokeColor=none;fillColor=none;align=center;verticalAlign=middle;whiteSpace=wrap;rounded=0;" parent="1" vertex="1">
          <mxGeometry x="378" y="-710" width="60" height="30" as="geometry" />
        </mxCell>
        <mxCell id="mRNTsra2dq2ffMZ_S3t9-6" value="Envia" style="shape=rhombus;perimeter=rhombusPerimeter;whiteSpace=wrap;html=1;align=center;" parent="1" vertex="1">
          <mxGeometry x="148" y="-1020" width="120" height="60" as="geometry" />
        </mxCell>
        <mxCell id="mRNTsra2dq2ffMZ_S3t9-8" value="Mensaje" style="swimlane;fontStyle=0;childLayout=stackLayout;horizontal=1;startSize=30;horizontalStack=0;resizeParent=1;resizeParentMax=0;resizeLast=0;collapsible=1;marginBottom=0;whiteSpace=wrap;html=1;" parent="1" vertex="1">
          <mxGeometry x="321.5" y="-1120" width="140" height="120" as="geometry" />
        </mxCell>
        <mxCell id="mRNTsra2dq2ffMZ_S3t9-9" value="" style="shape=table;startSize=0;container=1;collapsible=1;childLayout=tableLayout;fixedRows=1;rowLines=0;fontStyle=0;align=center;resizeLast=1;strokeColor=none;fillColor=none;collapsible=0;" parent="mRNTsra2dq2ffMZ_S3t9-8" vertex="1">
          <mxGeometry y="30" width="140" height="30" as="geometry" />
        </mxCell>
        <mxCell id="mRNTsra2dq2ffMZ_S3t9-10" value="" style="shape=tableRow;horizontal=0;startSize=0;swimlaneHead=0;swimlaneBody=0;fillColor=none;collapsible=0;dropTarget=0;points=[[0,0.5],[1,0.5]];portConstraint=eastwest;top=0;left=0;right=0;bottom=1;" parent="mRNTsra2dq2ffMZ_S3t9-9" vertex="1">
          <mxGeometry width="140" height="30" as="geometry" />
        </mxCell>
        <mxCell id="mRNTsra2dq2ffMZ_S3t9-11" value="PK" style="shape=partialRectangle;connectable=0;fillColor=none;top=0;left=0;bottom=0;right=0;fontStyle=1;overflow=hidden;whiteSpace=wrap;html=1;" parent="mRNTsra2dq2ffMZ_S3t9-10" vertex="1">
          <mxGeometry width="30" height="30" as="geometry">
            <mxRectangle width="30" height="30" as="alternateBounds" />
          </mxGeometry>
        </mxCell>
        <mxCell id="mRNTsra2dq2ffMZ_S3t9-12" value="id_mensaje" style="shape=partialRectangle;connectable=0;fillColor=none;top=0;left=0;bottom=0;right=0;align=left;spacingLeft=6;fontStyle=5;overflow=hidden;whiteSpace=wrap;html=1;" parent="mRNTsra2dq2ffMZ_S3t9-10" vertex="1">
          <mxGeometry x="30" width="110" height="30" as="geometry">
            <mxRectangle width="110" height="30" as="alternateBounds" />
          </mxGeometry>
        </mxCell>
        <mxCell id="mRNTsra2dq2ffMZ_S3t9-13" value="mensaje" style="text;strokeColor=none;fillColor=none;align=left;verticalAlign=middle;spacingLeft=4;spacingRight=4;overflow=hidden;points=[[0,0.5],[1,0.5]];portConstraint=eastwest;rotatable=0;whiteSpace=wrap;html=1;" parent="mRNTsra2dq2ffMZ_S3t9-8" vertex="1">
          <mxGeometry y="60" width="140" height="30" as="geometry" />
        </mxCell>
        <mxCell id="mRNTsra2dq2ffMZ_S3t9-14" value="fecha" style="text;strokeColor=none;fillColor=none;align=left;verticalAlign=middle;spacingLeft=4;spacingRight=4;overflow=hidden;points=[[0,0.5],[1,0.5]];portConstraint=eastwest;rotatable=0;whiteSpace=wrap;html=1;" parent="mRNTsra2dq2ffMZ_S3t9-8" vertex="1">
          <mxGeometry y="90" width="140" height="30" as="geometry" />
        </mxCell>
        <mxCell id="mRNTsra2dq2ffMZ_S3t9-18" value="" style="endArrow=none;html=1;rounded=0;entryX=0;entryY=0.5;entryDx=0;entryDy=0;exitX=0.5;exitY=0;exitDx=0;exitDy=0;" parent="1" source="s13MQNfYXoc7W4M39cxg-19" edge="1">
          <mxGeometry width="50" height="50" relative="1" as="geometry">
            <mxPoint x="128" y="-875" as="sourcePoint" />
            <mxPoint x="208" y="-960" as="targetPoint" />
          </mxGeometry>
        </mxCell>
        <mxCell id="mRNTsra2dq2ffMZ_S3t9-19" value="" style="endArrow=none;html=1;rounded=0;entryX=0.5;entryY=0;entryDx=0;entryDy=0;exitX=0;exitY=0.5;exitDx=0;exitDy=0;" parent="1" source="mRNTsra2dq2ffMZ_S3t9-14" target="mRNTsra2dq2ffMZ_S3t9-6" edge="1">
          <mxGeometry width="50" height="50" relative="1" as="geometry">
            <mxPoint x="218" y="-815" as="sourcePoint" />
            <mxPoint x="218" y="-950" as="targetPoint" />
          </mxGeometry>
        </mxCell>
        <mxCell id="mRNTsra2dq2ffMZ_S3t9-20" value="Recibe" style="shape=rhombus;perimeter=rhombusPerimeter;whiteSpace=wrap;html=1;align=center;" parent="1" vertex="1">
          <mxGeometry x="338" y="-950" width="120" height="60" as="geometry" />
        </mxCell>
        <mxCell id="mRNTsra2dq2ffMZ_S3t9-22" value="" style="endArrow=none;html=1;rounded=0;entryX=0.5;entryY=1;entryDx=0;entryDy=0;exitX=1;exitY=0;exitDx=0;exitDy=0;" parent="1" source="s13MQNfYXoc7W4M39cxg-19" target="mRNTsra2dq2ffMZ_S3t9-20" edge="1">
          <mxGeometry width="50" height="50" relative="1" as="geometry">
            <mxPoint x="218" y="-815" as="sourcePoint" />
            <mxPoint x="218" y="-950" as="targetPoint" />
          </mxGeometry>
        </mxCell>
        <mxCell id="mRNTsra2dq2ffMZ_S3t9-23" value="" style="endArrow=none;html=1;rounded=0;entryX=0.5;entryY=0;entryDx=0;entryDy=0;exitX=0.532;exitY=1.167;exitDx=0;exitDy=0;exitPerimeter=0;" parent="1" source="mRNTsra2dq2ffMZ_S3t9-14" target="mRNTsra2dq2ffMZ_S3t9-20" edge="1">
          <mxGeometry width="50" height="50" relative="1" as="geometry">
            <mxPoint x="288" y="-815" as="sourcePoint" />
            <mxPoint x="408" y="-880" as="targetPoint" />
          </mxGeometry>
        </mxCell>
        <mxCell id="mRNTsra2dq2ffMZ_S3t9-24" value="1,n" style="text;html=1;strokeColor=none;fillColor=none;align=center;verticalAlign=middle;whiteSpace=wrap;rounded=0;" parent="1" vertex="1">
          <mxGeometry x="148" y="-960" width="60" height="30" as="geometry" />
        </mxCell>
        <mxCell id="mRNTsra2dq2ffMZ_S3t9-25" value="0,n" style="text;html=1;strokeColor=none;fillColor=none;align=center;verticalAlign=middle;whiteSpace=wrap;rounded=0;" parent="1" vertex="1">
          <mxGeometry x="268" y="-1040" width="60" height="30" as="geometry" />
        </mxCell>
        <mxCell id="mRNTsra2dq2ffMZ_S3t9-26" value="N:M" style="text;html=1;strokeColor=none;fillColor=none;align=center;verticalAlign=middle;whiteSpace=wrap;rounded=0;" parent="1" vertex="1">
          <mxGeometry x="178" y="-1050" width="60" height="30" as="geometry" />
        </mxCell>
        <mxCell id="mRNTsra2dq2ffMZ_S3t9-27" value="0,n" style="text;html=1;strokeColor=none;fillColor=none;align=center;verticalAlign=middle;whiteSpace=wrap;rounded=0;" parent="1" vertex="1">
          <mxGeometry x="338" y="-990" width="60" height="30" as="geometry" />
        </mxCell>
        <mxCell id="mRNTsra2dq2ffMZ_S3t9-28" value="1,n" style="text;html=1;strokeColor=none;fillColor=none;align=center;verticalAlign=middle;whiteSpace=wrap;rounded=0;" parent="1" vertex="1">
          <mxGeometry x="278" y="-880" width="60" height="30" as="geometry" />
        </mxCell>
        <mxCell id="mRNTsra2dq2ffMZ_S3t9-30" value="N:M" style="text;html=1;strokeColor=none;fillColor=none;align=center;verticalAlign=middle;whiteSpace=wrap;rounded=0;" parent="1" vertex="1">
          <mxGeometry x="288" y="-935" width="60" height="30" as="geometry" />
        </mxCell>
        <mxCell id="559qUEmDnsinvbpg32ZU-3" value="1, n" style="text;html=1;strokeColor=none;fillColor=none;align=center;verticalAlign=middle;whiteSpace=wrap;rounded=0;" parent="1" vertex="1">
          <mxGeometry x="468" y="-735" width="60" height="30" as="geometry" />
        </mxCell>
        <mxCell id="559qUEmDnsinvbpg32ZU-4" value="1,n" style="text;html=1;strokeColor=none;fillColor=none;align=center;verticalAlign=middle;whiteSpace=wrap;rounded=0;" parent="1" vertex="1">
          <mxGeometry x="278" y="-680" width="50" height="20" as="geometry" />
        </mxCell>
      </root>
    </mxGraphModel>
  </diagram>
</mxfile>
